<svg width="20" height="16" viewBox="0 0 20 16" fill="none" xmlns="http://www.w3.org/2000/svg">
<path d="M19.6211 5.40946C19.7734 5.28837 20 5.40165 20 5.59305V13.5813C20 14.6165 19.1602 15.4563 18.125 15.4563H1.875C0.839844 15.4563 0 14.6165 0 13.5813V5.59696C0 5.40165 0.222656 5.29227 0.378906 5.41337C1.25391 6.09305 2.41406 6.95633 6.39844 9.85087C7.22266 10.4524 8.61328 11.7181 10 11.7102C11.3945 11.722 12.8125 10.429 13.6055 9.85087C17.5898 6.95633 18.7461 6.08915 19.6211 5.40946ZM10 10.4563C10.9063 10.472 12.2109 9.31571 12.8672 8.83915C18.0508 5.07743 18.4453 4.7493 19.6406 3.8118C19.8672 3.63602 20 3.36258 20 3.07352V2.33133C20 1.29618 19.1602 0.456335 18.125 0.456335H1.875C0.839844 0.456335 0 1.29618 0 2.33133V3.07352C0 3.36258 0.132812 3.63212 0.359375 3.8118C1.55469 4.7454 1.94922 5.07743 7.13281 8.83915C7.78906 9.31571 9.09375 10.472 10 10.4563V10.4563Z" fill="#BF4C2A"/>
</svg>
